<?xml version="1.0" standalone="no"?>
<!DOCTYPE svg PUBLIC "-//W3C//DTD SVG 20010904//EN"
 "http://www.w3.org/TR/2001/REC-SVG-20010904/DTD/svg10.dtd">
<svg version="1.0" xmlns="http://www.w3.org/2000/svg"
 width="16.000000pt" height="16.000000pt" viewBox="0 0 16.000000 16.000000"
 preserveAspectRatio="xMidYMid meet">
<metadata>
Created by potrace 1.11, written by Peter Selinger 2001-2013
</metadata>
<g transform="translate(0.000000,16.000000) scale(0.003125,-0.003125)"
fill="#000000" stroke="none">
<path d="M2310 4834 c-439 -56 -829 -221 -1175 -499 -283 -227 -531 -552 -676
-887 -60 -138 -129 -355 -144 -453 -2 -11 -8 -49 -14 -85 -26 -151 -34 -407
-18 -575 39 -410 221 -851 486 -1179 31 -38 67 -83 81 -100 53 -65 205 -207
320 -299 324 -259 753 -432 1175 -474 91 -9 329 -10 425 -1 515 49 1022 292
1404 674 138 139 310 367 390 518 14 27 30 54 35 60 34 44 155 371 187 504 21
89 21 92 30 149 3 26 8 56 10 67 25 137 24 499 -1 621 -3 11 -7 36 -10 55 -28
189 -99 410 -200 615 -51 105 -209 364 -234 385 -4 3 -22 25 -41 50 -207 265
-535 521 -856 665 -51 23 -90 46 -86 50 4 5 2 5 -4 2 -6 -3 -62 11 -125 33
-120 40 -296 84 -389 96 -30 3 -68 8 -85 11 -79 11 -389 9 -485 -3z m455 -279
c44 -4 89 -9 100 -11 11 -2 40 -7 65 -10 25 -3 47 -9 50 -13 3 -3 22 -7 44 -9
64 -5 303 -90 432 -153 465 -227 822 -628 993 -1113 32 -91 73 -245 86 -326 4
-25 9 -54 11 -65 18 -93 23 -338 11 -490 -11 -127 -50 -310 -96 -451 -33 -102
-131 -321 -174 -389 -104 -166 -174 -255 -295 -379 -295 -302 -677 -495 -1127
-571 -168 -28 -574 -24 -584 6 -2 8 -5 8 -10 0 -5 -7 -18 -8 -41 -1 -19 5 -51
11 -70 13 -52 7 -214 52 -300 82 -69 25 -288 127 -335 157 -165 106 -253 173
-365 282 -228 221 -389 473 -493 773 -34 97 -81 287 -91 368 -27 213 -27 411
-1 612 11 85 49 237 85 345 40 121 134 330 151 336 5 2 9 9 9 16 0 6 16 35 35
65 19 29 35 55 35 57 0 22 186 240 288 338 78 75 250 209 295 229 15 6 27 15
27 18 0 13 289 149 385 182 92 32 256 74 315 82 14 2 39 6 55 9 17 3 59 8 95
11 36 4 66 7 67 8 5 5 279 -1 348 -8z"/>
</g>
</svg>
